<svg xmlns="http://www.w3.org/2000/svg" width="22.742" height="16.791" viewBox="0 0 22.742 16.791">
  <g id="_02d" data-name="02d" transform="translate(118.701 -159.043)">
    <g id="g3786" transform="translate(-104.626 169.294)">
      <path id="path3788" d="M0,0A3.043,3.043,0,0,1,2.373,2.968,3.043,3.043,0,0,1-.669,6.011H-10.5a2.9,2.9,0,0,1-3.042-2.876A3.043,3.043,0,0,1-11.21.175a2.435,2.435,0,0,1-.127-.781A2.449,2.449,0,0,1-8.889-3.055a2.441,2.441,0,0,1,1.722.708h0A3.793,3.793,0,0,1-3.712-4.575,3.792,3.792,0,0,1,.081-.782,7.022,7.022,0,0,1,0,0Z" fill="none" stroke="#212b5b" stroke-linecap="round" stroke-linejoin="round" stroke-miterlimit="10" stroke-width="1.058"/>
    </g>
    <g id="g3790" transform="translate(-107.109 164.923)">
      <path id="path3792" d="M0,0A3.827,3.827,0,1,1,4.536,5.985" fill="none" stroke="#212b5b" stroke-linecap="round" stroke-linejoin="round" stroke-miterlimit="10" stroke-width="1.058"/>
    </g>
    <g id="g3854" transform="translate(-104.246 161.061)">
      <path id="path3856" d="M0,0-.009-1.486" fill="none" stroke="#212b5b" stroke-linecap="round" stroke-linejoin="round" stroke-miterlimit="10" stroke-width="1.058"/>
    </g>
    <g id="g3858" transform="translate(-97.978 168.051)">
      <path id="path3860" d="M0,0,1.486-.01" fill="none" stroke="#212b5b" stroke-linecap="round" stroke-linejoin="round" stroke-miterlimit="10" stroke-width="1.058"/>
    </g>
    <g id="g3862" transform="translate(-99.508 162.954)">
      <path id="path3864" d="M0,0,1.044-1.057" fill="none" stroke="#212b5b" stroke-linecap="round" stroke-linejoin="round" stroke-miterlimit="10" stroke-width="1.058"/>
    </g>
    <g id="g3866" transform="translate(-109.354 162.954)">
      <path id="path3868" d="M0,0-1.044-1.057" fill="none" stroke="#212b5b" stroke-linecap="round" stroke-linejoin="round" stroke-miterlimit="10" stroke-width="1.058"/>
    </g>
    <g id="g3870" transform="translate(-99.046 173.428)">
      <path id="path3872" d="M0,0-1.044-1.057" fill="none" stroke="#212b5b" stroke-linecap="round" stroke-linejoin="round" stroke-miterlimit="10" stroke-width="1.058"/>
    </g>
  </g>
</svg>
