<svg xmlns="http://www.w3.org/2000/svg" width="22.11" height="17.676" viewBox="0 0 22.11 17.676">
  <g id="_02n" data-name="02n" transform="translate(16.71 9.531)">
    <g id="g8029">
      <g id="g8020" transform="translate(66.588 -202.262)">
        <g id="g3926" transform="translate(-67.273 203.002)">
          <path id="path3928" d="M0,0A3.481,3.481,0,0,1,2.714,3.4,3.48,3.48,0,0,1-.766,6.875h-11.25A3.322,3.322,0,0,1-15.5,3.586,3.481,3.481,0,0,1-12.823.2a2.793,2.793,0,0,1-.146-.894,2.8,2.8,0,0,1,2.8-2.8,2.794,2.794,0,0,1,1.97.81h0A4.338,4.338,0,0,1-4.245-5.233,4.338,4.338,0,0,1,.093-.9,8,8,0,0,1,0,0Z" fill="none" stroke="#212b5b" stroke-linecap="round" stroke-linejoin="round" stroke-miterlimit="10" stroke-width="1.058"/>
        </g>
      </g>
      <path id="path3932" d="M0,0A4.833,4.833,0,0,0,4.871-4.518c0-.021,0-.041,0-.062a3.352,3.352,0,0,1-2.6,1.239A3.36,3.36,0,0,1-1.1-6.7,3.345,3.345,0,0,1-.181-9,4.184,4.184,0,0,0-4.165-4.871" fill="none" stroke="#212b5b" stroke-linecap="round" stroke-linejoin="round" stroke-miterlimit="10" stroke-width="1.058"/>
    </g>
  </g>
</svg>
