<svg xmlns="http://www.w3.org/2000/svg" width="21.058" height="14.357" viewBox="0 0 21.058 14.357">
  <g id="_03d" data-name="03d" transform="translate(18.758 6.685)">
    <path id="path3776" d="M-1.21-.409A3.824,3.824,0,0,1,1.772,3.32,3.822,3.822,0,0,1-2.051,7.142H-14.407A3.649,3.649,0,0,1-18.228,3.53,3.823,3.823,0,0,1-15.294-.189a3.061,3.061,0,0,1-.16-.982,3.077,3.077,0,0,1,3.077-3.077,3.066,3.066,0,0,1,2.163.889h0a4.766,4.766,0,0,1,4.341-2.8A4.765,4.765,0,0,1-1.108-1.391a8.786,8.786,0,0,1-.1.983Z" transform="translate(0 0)" fill="none" stroke="#212b5b" stroke-linecap="round" stroke-linejoin="round" stroke-miterlimit="10" stroke-width="1.058"/>
  </g>
</svg>
