<svg xmlns="http://www.w3.org/2000/svg" width="23.01" height="14.651" viewBox="0 0 23.01 14.651">
  <g id="_04d" data-name="04d" transform="translate(264.781 -162.191)">
    <path id="path7920" d="M19.094,7.415A3.014,3.014,0,0,0,16.35,9.156a1.957,1.957,0,0,0-3.2.732,4.024,4.024,0,0,1,3.314,3.95,7.354,7.354,0,0,1-.086.829A3.24,3.24,0,0,1,18.1,15.69h3.412a2.375,2.375,0,0,0,.531-4.7,5.386,5.386,0,0,0,.064-.611,2.988,2.988,0,0,0-3.011-2.965Z" transform="translate(-266.209 155.291)" fill="none" stroke="#212b5b" stroke-linecap="round" stroke-linejoin="round" stroke-miterlimit="10" stroke-width="1.03"/>
    <g id="g7938" transform="translate(-249.834 169.959)">
      <path id="path7936" d="M0,0A3.229,3.229,0,0,1,2.528,3.145,3.232,3.232,0,0,1-.713,6.368H-11.19a3.087,3.087,0,0,1-3.241-3.047A3.228,3.228,0,0,1-11.943.186a2.569,2.569,0,0,1-.136-.828A2.6,2.6,0,0,1-9.469-3.237a2.607,2.607,0,0,1,1.834.75h0a4.042,4.042,0,0,1,3.681-2.36A4.029,4.029,0,0,1,.086-.829,7.371,7.371,0,0,1,0,0Z" fill="none" stroke="#212b5b" stroke-linecap="round" stroke-linejoin="round" stroke-miterlimit="10" stroke-width="1.03"/>
    </g>
  </g>
</svg>
