<svg xmlns="http://www.w3.org/2000/svg" width="19.768" height="21.127" viewBox="0 0 19.768 21.127">
  <g id="_09d" data-name="09d" transform="translate(154.085 -264.275)">
    <g id="g4262" transform="translate(-153.556 264.804)">
      <path id="path4264" d="M-2.308-.312A3.83,3.83,0,0,1,.482,3.479,3.741,3.741,0,0,1-3.094,7.365H-14.653a3.552,3.552,0,0,1-3.575-3.673,3.835,3.835,0,0,1,2.746-3.78,3.361,3.361,0,0,1-.15-1,3.01,3.01,0,0,1,2.878-3.127,2.757,2.757,0,0,1,2.024.9h0A4.457,4.457,0,0,1-6.669-6.156,4.663,4.663,0,0,1-2.212-1.312a9.692,9.692,0,0,1-.1,1Z" transform="translate(18.228 6.156)" fill="none" stroke="#212b5b" stroke-linecap="round" stroke-linejoin="round" stroke-miterlimit="10" stroke-width="1.058"/>
    </g>
    <g id="g4266" transform="translate(-149.026 279.837)">
      <path id="path4268" d="M0,0-.353,2.5" transform="translate(0.353)" fill="none" stroke="#212b5b" stroke-linecap="round" stroke-linejoin="round" stroke-miterlimit="10" stroke-width="1.058"/>
    </g>
    <g id="g4270" transform="translate(-145.998 279.837)">
      <path id="path4272" d="M0,0-.706,4.968" transform="translate(0.706)" fill="none" stroke="#212b5b" stroke-linecap="round" stroke-linejoin="round" stroke-miterlimit="10" stroke-width="1.058"/>
    </g>
    <g id="g4274" transform="translate(-142.521 279.837)">
      <path id="path4276" d="M0,0-.706,4.968" transform="translate(0.706)" fill="none" stroke="#212b5b" stroke-linecap="round" stroke-linejoin="round" stroke-miterlimit="10" stroke-width="1.058"/>
    </g>
    <g id="g4278" transform="translate(-138.817 279.837)">
      <path id="path4280" d="M0,0-.353,2.5" transform="translate(0.353)" fill="none" stroke="#212b5b" stroke-linecap="round" stroke-linejoin="round" stroke-miterlimit="10" stroke-width="1.058"/>
    </g>
  </g>
</svg>
