<svg xmlns="http://www.w3.org/2000/svg" width="22.742" height="23.052" viewBox="0 0 22.742 23.052">
  <g id="_10d" data-name="10d" transform="translate(83.282 -262.823)">
    <g id="g4298" transform="translate(-79.149 281.426)">
      <path id="path4300" d="M0,0-.273,1.937" fill="none" stroke="#212b5b" stroke-linecap="round" stroke-linejoin="round" stroke-miterlimit="10" stroke-width="1.058"/>
    </g>
    <g id="g4302" transform="translate(-76.311 281.426)">
      <path id="path4304" d="M0,0-.547,3.852" fill="none" stroke="#212b5b" stroke-linecap="round" stroke-linejoin="round" stroke-miterlimit="10" stroke-width="1.058"/>
    </g>
    <g id="g4306" transform="translate(-73.372 281.426)">
      <path id="path4308" d="M0,0-.547,3.852" fill="none" stroke="#212b5b" stroke-linecap="round" stroke-linejoin="round" stroke-miterlimit="10" stroke-width="1.058"/>
    </g>
    <g id="g4310" transform="translate(-70.534 281.426)">
      <path id="path4312" d="M0,0-.273,1.937" fill="none" stroke="#212b5b" stroke-linecap="round" stroke-linejoin="round" stroke-miterlimit="10" stroke-width="1.058"/>
    </g>
    <g id="g4338" transform="translate(-69.207 273.075)">
      <path id="path4340" d="M0,0A3.044,3.044,0,0,1,2.373,2.968,3.043,3.043,0,0,1-.669,6.011H-10.5a2.9,2.9,0,0,1-3.042-2.876A3.042,3.042,0,0,1-11.21.176a2.437,2.437,0,0,1-.127-.781A2.449,2.449,0,0,1-8.888-3.054a2.443,2.443,0,0,1,1.722.707A3.793,3.793,0,0,1-3.711-4.574,3.793,3.793,0,0,1,.081-.782,6.972,6.972,0,0,1,0,0Z" fill="none" stroke="#212b5b" stroke-linecap="round" stroke-linejoin="round" stroke-miterlimit="10" stroke-width="1.058"/>
    </g>
    <g id="g4342" transform="translate(-71.69 268.703)">
      <path id="path4344" d="M0,0A3.827,3.827,0,1,1,4.536,5.985" fill="none" stroke="#212b5b" stroke-linecap="round" stroke-linejoin="round" stroke-miterlimit="10" stroke-width="1.058"/>
    </g>
    <g id="g4346" transform="translate(-68.827 264.841)">
      <path id="path4348" d="M0,0-.01-1.486" fill="none" stroke="#212b5b" stroke-linecap="round" stroke-linejoin="round" stroke-miterlimit="10" stroke-width="1.058"/>
    </g>
    <g id="g4350" transform="translate(-62.559 271.832)">
      <path id="path4352" d="M0,0,1.486-.01" fill="none" stroke="#212b5b" stroke-linecap="round" stroke-linejoin="round" stroke-miterlimit="10" stroke-width="1.058"/>
    </g>
    <g id="g4354" transform="translate(-64.089 266.735)">
      <path id="path4356" d="M0,0,1.044-1.057" fill="none" stroke="#212b5b" stroke-linecap="round" stroke-linejoin="round" stroke-miterlimit="10" stroke-width="1.058"/>
    </g>
    <g id="g4358" transform="translate(-73.934 266.735)">
      <path id="path4360" d="M0,0-1.044-1.057" fill="none" stroke="#212b5b" stroke-linecap="round" stroke-linejoin="round" stroke-miterlimit="10" stroke-width="1.058"/>
    </g>
    <g id="g4362" transform="translate(-63.627 277.209)">
      <path id="path4364" d="M0,0-1.044-1.058" fill="none" stroke="#212b5b" stroke-linecap="round" stroke-linejoin="round" stroke-miterlimit="10" stroke-width="1.058"/>
    </g>
  </g>
</svg>
