<svg xmlns="http://www.w3.org/2000/svg" width="20.116" height="21.719" viewBox="0 0 20.116 21.719">
  <g id="_10n" data-name="10n" transform="translate(46.127 -264.156)">
    <g id="g4282" transform="translate(-42.631 281.426)">
      <path id="path4284" d="M0,0-.273,1.937" fill="none" stroke="#212b5b" stroke-linecap="round" stroke-linejoin="round" stroke-miterlimit="10" stroke-width="1.058"/>
    </g>
    <g id="g4286" transform="translate(-39.793 281.426)">
      <path id="path4288" d="M0,0-.547,3.852" fill="none" stroke="#212b5b" stroke-linecap="round" stroke-linejoin="round" stroke-miterlimit="10" stroke-width="1.058"/>
    </g>
    <g id="g4290" transform="translate(-36.854 281.426)">
      <path id="path4292" d="M0,0-.547,3.852" fill="none" stroke="#212b5b" stroke-linecap="round" stroke-linejoin="round" stroke-miterlimit="10" stroke-width="1.058"/>
    </g>
    <g id="g4294" transform="translate(-34.016 281.426)">
      <path id="path4296" d="M0,0-.273,1.937" fill="none" stroke="#212b5b" stroke-linecap="round" stroke-linejoin="round" stroke-miterlimit="10" stroke-width="1.058"/>
    </g>
    <g id="g4366" transform="translate(-33.395 273.544)">
      <path id="path4368" d="M.851.287A2.932,2.932,0,0,1,.206,6.079H-9.271A2.8,2.8,0,0,1-12.2,3.309,2.933,2.933,0,0,1-9.951.456,2.351,2.351,0,0,1-10.074-.3a2.36,2.36,0,0,1,2.359-2.36,2.353,2.353,0,0,1,1.659.683h0A3.654,3.654,0,0,1-2.725-4.12,3.654,3.654,0,0,1,.929-.467,6.74,6.74,0,0,1,.851.288Z" fill="none" stroke="#212b5b" stroke-linecap="round" stroke-linejoin="round" stroke-miterlimit="10" stroke-width="1.058"/>
    </g>
    <g id="g4370" transform="translate(-31.41 273.688)">
      <path id="path4372" d="M0,0A4.833,4.833,0,0,0,4.871-4.519c0-.021,0-.041,0-.062a3.352,3.352,0,0,1-2.6,1.239A3.359,3.359,0,0,1-1.1-6.7,3.346,3.346,0,0,1-.181-9,4.183,4.183,0,0,0-4.165-4.872" fill="none" stroke="#212b5b" stroke-linecap="round" stroke-linejoin="round" stroke-miterlimit="10" stroke-width="1.058"/>
    </g>
  </g>
</svg>
