<svg xmlns="http://www.w3.org/2000/svg" width="21.058" height="22.081" viewBox="0 0 21.058 22.081">
  <g id="_11d" data-name="11d" transform="translate(-423.289 -212.527)">
    <g id="g3878" transform="translate(429.256 227.346)">
      <path id="path3880" d="M0,0-2.6,3.249l2.5.031-2.885,3.8L5.575,2.344,2.569,2.328,4.16,0Z" transform="translate(2.991)" fill="none" stroke="#212b5b" stroke-linecap="round" stroke-linejoin="round" stroke-miterlimit="10" stroke-width="0.353"/>
    </g>
    <g id="g3882" transform="translate(423.818 213.056)">
      <path id="path3884" d="M-1.12,0A4.026,4.026,0,0,1,1.861,3.974,3.954,3.954,0,0,1-1.96,8.048H-14.316A3.76,3.76,0,0,1-18.139,4.2,4.031,4.031,0,0,1-15.2.235a3.473,3.473,0,0,1-.16-1.046A3.182,3.182,0,0,1-12.287-4.09a2.975,2.975,0,0,1,2.163.947h0A4.761,4.761,0,0,1-5.782-6.125,4.929,4.929,0,0,1-1.018-1.048,9.949,9.949,0,0,1-1.12,0Z" transform="translate(18.139 6.125)" fill="none" stroke="#212b5b" stroke-linecap="round" stroke-linejoin="round" stroke-miterlimit="10" stroke-width="1.058"/>
    </g>
  </g>
</svg>
