<svg xmlns="http://www.w3.org/2000/svg" width="21.058" height="18.407" viewBox="0 0 21.058 18.407">
  <g id="_13d" data-name="13d" transform="translate(118.425 -194.465)">
    <g id="g3886" transform="translate(-117.896 194.994)">
      <path id="path3888" d="M-.126-.578A3.632,3.632,0,0,1-3.948-4.152a3.791,3.791,0,0,1,2.935-3.68,3,3,0,0,1-.16-.971A3.06,3.06,0,0,1,1.9-11.847a3.083,3.083,0,0,1,2.163.88h0a4.768,4.768,0,0,1,4.34-2.768,4.74,4.74,0,0,1,4.765,4.714,8.614,8.614,0,0,1-.1.974h0a3.792,3.792,0,0,1,2.982,3.69A3.8,3.8,0,0,1,12.23-.578" transform="translate(3.948 13.737)" fill="none" stroke="#212b5b" stroke-linecap="round" stroke-linejoin="round" stroke-miterlimit="10" stroke-width="1.058"/>
    </g>
    <g id="g3890" transform="translate(-107.896 203.788)">
      <path id="path3892" d="M0,0V8.731" fill="none" stroke="#212b5b" stroke-linecap="round" stroke-linejoin="round" stroke-miterlimit="10" stroke-width="0.706"/>
    </g>
    <g id="g3894" transform="translate(-112.262 208.293)">
      <path id="path3896" d="M0,0H-8.731" transform="translate(8.731)" fill="none" stroke="#212b5b" stroke-linecap="round" stroke-linejoin="round" stroke-miterlimit="10" stroke-width="0.706"/>
    </g>
    <g id="g3898" transform="translate(-111.454 207.004)">
      <path id="path3900" d="M0,0,1.264,1.264,0,2.528" fill="none" stroke="#212b5b" stroke-linecap="round" stroke-linejoin="round" stroke-miterlimit="10" stroke-width="0.706"/>
    </g>
    <g id="g3902" transform="translate(-105.603 207.004)">
      <path id="path3904" d="M0,0-1.264-1.264,0-2.528" transform="translate(1.264 2.528)" fill="none" stroke="#212b5b" stroke-linecap="round" stroke-linejoin="round" stroke-miterlimit="10" stroke-width="0.706"/>
    </g>
    <g id="g3906" transform="translate(-109.16 210.549)">
      <path id="path3908" d="M0,0,1.264-1.264,2.528,0" transform="translate(0 1.264)" fill="none" stroke="#212b5b" stroke-linecap="round" stroke-linejoin="round" stroke-miterlimit="10" stroke-width="0.706"/>
    </g>
    <g id="g3910" transform="translate(-109.16 204.725)">
      <path id="path3912" d="M0,0-1.264,1.264-2.528,0" transform="translate(2.528)" fill="none" stroke="#212b5b" stroke-linecap="round" stroke-linejoin="round" stroke-miterlimit="10" stroke-width="0.706"/>
    </g>
    <g id="g3914" transform="translate(-110.983 205.066)">
      <path id="path3916" d="M0,0-6.174,6.174" transform="translate(6.174)" fill="none" stroke="#212b5b" stroke-linecap="round" stroke-linejoin="round" stroke-miterlimit="10" stroke-width="0.706"/>
    </g>
    <g id="g3918" transform="translate(-110.983 205.066)">
      <path id="path3920" d="M0,0-6.174-6.174" transform="translate(6.174 6.174)" fill="none" stroke="#212b5b" stroke-linecap="round" stroke-linejoin="round" stroke-miterlimit="10" stroke-width="0.706"/>
    </g>
  </g>
</svg>
