<svg xmlns="http://www.w3.org/2000/svg"  viewBox="0 0 28.134 40.266">
  <g id="map.icon" transform="translate(-77.133)">
    <path id="Path_1" data-name="Path 1" d="M112.191,142.829,108.012,149l-6.179,6.148c-2.3-2.921-4.808-5.75-6.338-9.172l3.331-5.1,5.108-4.928a5.375,5.375,0,0,0,7.985,7.176C112.013,143.026,112.1,142.929,112.191,142.829Z" transform="translate(-16.918 -125.254)" fill="#ecb72b"/>
    <path id="Path_2" data-name="Path 2" d="M212.678,25.134a5.375,5.375,0,0,0-7.971-7.193q-.132.132-.253.271l3.524-5.729,4.781-4.153a14.1,14.1,0,0,1,8.23,6.919L217.5,20.873Z" transform="translate(-117.308 -7.675)" fill="#5085f7"/>
    <path id="Path_3" data-name="Path 3" d="M87.016,69.672,78.577,79.7a16.008,16.008,0,0,1-1.437-6.255c0-.133-.006-.267-.006-.4a14.009,14.009,0,0,1,3.283-9.033Z" transform="translate(0 -58.981)" fill="#da2f2a"/>
    <path id="Path_4" data-name="Path 4" d="M125.476,10.692l-6.6-5.658A14.087,14.087,0,0,1,133.912.654Z" transform="translate(-38.46 0)" fill="#4274eb"/>
    <path id="Path_5" data-name="Path 5" d="M196.428,102.8a14.007,14.007,0,0,0-1.585-6.493l-18.768,22.321c2.132,2.712,4.081,5.5,4.89,8.923.026.109.054.237.084.381a1.34,1.34,0,0,0,2.624,0c.03-.144.058-.272.084-.381,2.159-9.114,12.411-13.772,12.665-24.35C196.426,103.068,196.428,102.934,196.428,102.8Z" transform="translate(-91.162 -88.733)" fill="#60a850"/>
  </g>
</svg>
