<svg id="Layer_1" height="512" viewBox="0 0 128 128" width="512" xmlns="http://www.w3.org/2000/svg" data-name="Layer 1"><path d="m121.5 64a57.5 57.5 0 1 1 -57.5-57.5 57.742 57.742 0 0 1 57.5 57.5z" fill="#e8e8e8"/><g fill="#cdcdcd"><path d="m13.511 55.577a1.709 1.709 0 0 1 -.347-.035 1.75 1.75 0 0 1 -1.371-2.061 53.393 53.393 0 0 1 9.562-21.338 1.75 1.75 0 0 1 2.8 2.1 49.864 49.864 0 0 0 -8.932 19.932 1.752 1.752 0 0 1 -1.712 1.402z"/><path d="m30.263 26.87a1.75 1.75 0 0 1 -1.149-3.07 53.646 53.646 0 0 1 5.594-4.25 1.75 1.75 0 0 1 1.929 2.92 50.215 50.215 0 0 0 -5.227 3.972 1.742 1.742 0 0 1 -1.147.428z"/><circle cx="48.497" cy="49.271" r="8.846"/><path d="m120.4 75.24a57.276 57.276 0 0 1 -5.83 16.15 8.848 8.848 0 1 1 5.83-16.15z"/><circle cx="53.005" cy="86.472" r="8.846"/><circle cx="81.186" cy="92.472" r="6"/><circle cx="88.192" cy="52.292" r="6"/><circle cx="83.179" cy="37.877" r="3"/></g></svg>